<svg width="49" height="49" viewBox="0 0 49 49" fill="none" xmlns="http://www.w3.org/2000/svg">
<mask id="mask0_41_16" style="mask-type:luminance" maskUnits="userSpaceOnUse" x="0" y="0" width="49" height="49">
<path d="M44.75 13.25H4.25C3.65326 13.25 3.08097 13.4871 2.65901 13.909C2.23705 14.331 2 14.9033 2 15.5V44.75C2 45.3467 2.23705 45.919 2.65901 46.341C3.08097 46.7629 3.65326 47 4.25 47H44.75C45.3467 47 45.919 46.7629 46.341 46.341C46.7629 45.919 47 45.3467 47 44.75V15.5C47 14.9033 46.7629 14.331 46.341 13.909C45.919 13.4871 45.3467 13.25 44.75 13.25Z" fill="white" stroke="white" stroke-width="4" stroke-linejoin="round"/>
<path d="M32.375 21.125H9.875V39.125H32.375V21.125Z" fill="black" stroke="black" stroke-width="4" stroke-linejoin="round"/>
<path d="M13.25 4.8125L23.4763 13.25L35.75 2" stroke="white" stroke-width="4" stroke-linecap="round" stroke-linejoin="round"/>
<path d="M40.25 20V21.125M40.25 27.875V29" stroke="black" stroke-width="4" stroke-linecap="round" stroke-linejoin="round"/>
</mask>
<g mask="url(#mask0_41_16)">
<path d="M-2.5 -0.25H51.5V53.75H-2.5V-0.25Z" fill="#85B6FF"/>
</g>
</svg>
